# xmcd
#
# Track frame offsets: 
#        150
#        17050
#        39949
#        58525
#        77770
#        98739
#        115573
#        129356
#        144139
#        159260
#
# Disc length: 2319 seconds
#
# Revision: 0
# Processed by: cddbd v1.5.2PL0 Copyright (c) Steve Scherf et al.
# Submitted via: ExactAudioCopy v1.3
#
DISCID=68090d0a
DTITLE=Preacher Boy - The Rumble Strip
DYEAR=2018
DGENRE=Blues
TTITLE0=The Sliding Window (Hail Mary)
TTITLE1=Bullet
TTITLE2=The Rumble Strip
TTITLE3=Down With The Fellas
TTITLE4=Bandy-Legged And Broke
TTITLE5=Saint Peter
TTITLE6=The Belly Of Down
TTITLE7=Crazy Dirty James
TTITLE8=Can't Sleep Here Tonight
TTITLE9=Showers Of Rain
EXTD=
EXTT0=
EXTT1=
EXTT2=
EXTT3=
EXTT4=
EXTT5=
EXTT6=
EXTT7=
EXTT8=
EXTT9=
PLAYORDER=
